<svg width="590" height="756" viewBox="0 0 590 756" fill="none" xmlns="http://www.w3.org/2000/svg">
<path fill-rule="evenodd" clip-rule="evenodd" d="M285.098 65.6595C239.586 67.7402 195.414 81.7157 156.988 106.193L155.705 104.179C156.549 103.641 157.395 103.109 158.245 102.582C196.424 78.8697 240.059 65.3285 284.989 63.2745C330.918 61.1747 376.596 71.1521 417.466 92.2117C458.337 113.271 492.972 144.677 517.919 183.298C542.323 221.078 556.622 264.471 559.471 309.325C559.528 310.216 559.58 311.108 559.627 312H564.995L558.5 321L552.005 312H557.236C554.797 266.659 540.554 222.739 515.914 184.594C491.193 146.323 456.872 115.203 416.373 94.3341C375.873 73.4656 330.61 63.5788 285.098 65.6595Z" fill="#8CAA44"/>
<path fill-rule="evenodd" clip-rule="evenodd" d="M378.488 584.443C421.677 569.937 460.309 544.363 490.531 510.27L492.317 511.854C491.654 512.602 490.986 513.347 490.314 514.087C460.12 547.377 421.885 572.386 379.248 586.707C335.664 601.345 289.003 604.303 243.919 595.283C198.835 586.264 156.904 565.584 122.305 535.304C88.4595 505.683 62.7886 467.889 47.7246 425.545C47.4252 424.704 47.1301 423.861 46.8392 423.016L41.678 424.491L45.4503 414.052L54.1684 420.921L49.1381 422.359C63.9416 465.284 89.7046 503.6 123.877 533.507C158.162 563.512 199.713 584.005 244.388 592.942C289.062 601.88 335.299 598.949 378.488 584.443Z" fill="#8CAA44"/>
<circle cx="296.5" cy="326.5" r="216.5" stroke="url(#paint0_linear_304_452)" stroke-width="26"/>
<circle cx="107.238" cy="212.238" r="103.238" stroke="#B1DA50" stroke-width="2"/>
<circle cx="107.238" cy="212.238" r="59.5134" fill="white" stroke="#B1DA50" stroke-width="2"/>
<circle cx="107.238" cy="212.238" r="26.0772" fill="#B1DA50" stroke="#B1DA50" stroke-width="2"/>
<circle cx="107.238" cy="212.238" r="103.238" stroke="#B1DA50" stroke-width="2"/>
<circle cx="107.238" cy="212.238" r="59.5134" fill="white" stroke="#B1DA50" stroke-width="2"/>
<circle cx="107.238" cy="212.238" r="26.0772" fill="#B1DA50" stroke="#B1DA50" stroke-width="2"/>
<circle cx="485.238" cy="212.238" r="103.238" stroke="#B1DA50" stroke-width="2"/>
<circle cx="485.238" cy="212.238" r="59.5134" fill="white" stroke="#B1DA50" stroke-width="2"/>
<circle cx="485.238" cy="212.238" r="26.0772" fill="#B1DA50" stroke="#B1DA50" stroke-width="2"/>
<circle cx="297.238" cy="581.762" r="103.238" fill="white" fill-opacity="0.8" stroke="#B1DA50" stroke-width="2"/>
<mask id="mask0_304_452" style="mask-type:alpha" maskUnits="userSpaceOnUse" x="193" y="477" width="209" height="209">
<circle cx="297.238" cy="581.762" r="103.238" fill="white" fill-opacity="0.8" stroke="#B1DA50" stroke-width="2"/>
</mask>
<g mask="url(#mask0_304_452)">
<path d="M331.556 581.576C331.556 575.213 326.39 570.073 320.032 570.073C313.674 570.073 308.506 575.213 308.506 581.576C308.506 587.957 313.671 593.122 320.032 593.122C326.394 593.122 331.556 587.957 331.556 581.576Z" fill="white" fill-opacity="0.8" stroke="#B1DA50" stroke-width="2"/>
<path d="M303.388 597.691C303.388 591.249 298.165 586 291.7 586C285.235 586 280 591.248 280 597.691C280 604.151 285.234 609.401 291.7 609.401C298.166 609.401 303.388 604.15 303.388 597.691Z" fill="white" fill-opacity="0.8" stroke="#B1DA50" stroke-width="2"/>
<path d="M275.357 561.928C275.357 567.812 280.117 572.587 285.995 572.587C291.873 572.587 296.633 567.812 296.633 561.928C296.633 556.061 291.871 551.289 285.995 551.289C280.119 551.289 275.357 556.061 275.357 561.928Z" fill="white" fill-opacity="0.8" stroke="#B1DA50" stroke-width="2"/>
<path d="M320.032 631.781C326.062 631.781 330.938 626.906 330.938 620.874C330.938 614.865 326.063 609.968 320.032 609.968C313.999 609.968 309.124 614.865 309.124 620.874C309.124 626.906 314.001 631.781 320.032 631.781Z" fill="white" fill-opacity="0.8" stroke="#B1DA50" stroke-width="2"/>
<path d="M258.043 614.086C263.461 614.086 267.854 609.693 267.854 604.275C267.854 598.857 263.461 594.464 258.043 594.464C252.625 594.464 248.232 598.857 248.232 604.275C248.232 609.693 252.625 614.086 258.043 614.086Z" fill="white" fill-opacity="0.8" stroke="#B1DA50" stroke-width="2"/>
<path d="M258.047 549.498C252.851 549.498 248.634 553.713 248.634 558.9C248.634 564.086 252.848 568.324 258.047 568.324C263.245 568.324 267.46 564.086 267.46 558.9C267.46 553.713 263.242 549.498 258.047 549.498Z" fill="white" fill-opacity="0.8" stroke="#B1DA50" stroke-width="2"/>
<path d="M310.216 542.299C310.216 547.716 314.622 552.094 320.032 552.094C325.441 552.094 329.846 547.716 329.846 542.299C329.846 536.865 325.442 532.485 320.032 532.485C314.62 532.485 310.216 536.865 310.216 542.299Z" fill="white" fill-opacity="0.8" stroke="#B1DA50" stroke-width="2"/>
<path d="M349.485 635.755C355.229 635.755 359.896 631.083 359.896 625.321C359.896 619.581 355.228 614.911 349.485 614.911C343.723 614.911 339.051 619.579 339.051 625.321C339.051 631.085 343.721 635.755 349.485 635.755Z" fill="white" fill-opacity="0.8" stroke="#B1DA50" stroke-width="2"/>
<path d="M319.179 648.618C319.179 643.085 314.697 638.576 309.156 638.576C303.617 638.576 299.136 643.085 299.136 648.618C299.136 654.156 303.62 658.64 309.156 658.64C314.694 658.64 319.179 654.156 319.179 648.618Z" fill="white" fill-opacity="0.8" stroke="#B1DA50" stroke-width="2"/>
<path d="M245.204 634.872C250.473 634.872 254.752 630.617 254.752 625.324C254.752 620.053 250.472 615.797 245.204 615.797C239.939 615.797 235.658 620.053 235.658 625.324C235.658 630.617 239.938 634.872 245.204 634.872Z" fill="white" fill-opacity="0.8" stroke="#B1DA50" stroke-width="2"/>
<path d="M236.328 537.83C236.328 542.747 240.297 546.718 245.205 546.718C250.114 546.718 254.093 542.749 254.093 537.83C254.093 532.931 250.112 528.963 245.205 528.963C240.298 528.963 236.328 532.932 236.328 537.83Z" fill="white" fill-opacity="0.8" stroke="#B1DA50" stroke-width="2"/>
<path d="M276.644 514.578C276.644 519.477 280.615 523.446 285.521 523.446C290.43 523.446 294.401 519.477 294.401 514.578C294.401 509.66 290.432 505.69 285.521 505.69C280.613 505.69 276.644 509.66 276.644 514.578Z" fill="white" fill-opacity="0.8" stroke="#B1DA50" stroke-width="2"/>
<path d="M300.227 514.578C300.227 519.5 304.24 523.487 309.155 523.487C314.071 523.487 318.085 519.5 318.085 514.578C318.085 509.637 314.073 505.648 309.155 505.648C304.238 505.648 300.227 509.637 300.227 514.578Z" fill="white" fill-opacity="0.8" stroke="#B1DA50" stroke-width="2"/>
<path d="M361.306 548.736C356 548.736 351.697 553.009 351.697 558.303C351.697 563.59 355.994 567.912 361.306 567.912C366.601 567.912 370.875 563.586 370.875 558.303C370.875 553.013 366.595 548.736 361.306 548.736Z" fill="white" fill-opacity="0.8" stroke="#B1DA50" stroke-width="2"/>
<path d="M384.993 614.172C390.012 614.172 394.107 610.102 394.107 605.078C394.107 600.053 390.012 595.983 384.993 595.983C379.973 595.983 375.878 600.053 375.878 605.078C375.878 610.102 379.973 614.172 384.993 614.172Z" fill="white" fill-opacity="0.8" stroke="#B1DA50" stroke-width="2"/>
<path d="M375.931 635.84C380.83 635.84 384.798 631.868 384.798 626.952C384.798 622.053 380.828 618.083 375.931 618.083C371.013 618.083 367.041 622.051 367.041 626.952C367.041 631.87 371.011 635.84 375.931 635.84Z" fill="white" fill-opacity="0.8" stroke="#B1DA50" stroke-width="2"/>
<path d="M320.815 678.329C325.856 678.329 329.928 674.258 329.928 669.235C329.928 664.212 325.856 660.14 320.815 660.14C315.814 660.14 311.72 664.212 311.72 669.235C311.72 674.258 315.814 678.329 320.815 678.329Z" fill="white" fill-opacity="0.8" stroke="#B1DA50" stroke-width="2"/>
<path d="M273.855 678.081C278.734 678.081 282.692 674.112 282.692 669.235C282.692 664.355 278.731 660.408 273.855 660.408C268.979 660.408 265.018 664.355 265.018 669.235C265.018 674.112 268.976 678.081 273.855 678.081Z" fill="white" fill-opacity="0.8" stroke="#B1DA50" stroke-width="2"/>
<path d="M233.176 654.067C237.767 654.067 241.488 650.346 241.488 645.755C241.488 641.165 237.767 637.443 233.176 637.443C228.586 637.443 224.865 641.165 224.865 645.755C224.865 650.346 228.586 654.067 233.176 654.067Z" fill="white" fill-opacity="0.8" stroke="#B1DA50" stroke-width="2"/>
<path d="M209.687 613.122C214.13 613.122 217.741 609.525 217.741 605.078C217.741 600.63 214.13 597.034 209.687 597.034C205.242 597.034 201.643 600.632 201.643 605.078C201.643 609.524 205.242 613.122 209.687 613.122Z" fill="white" fill-opacity="0.8" stroke="#B1DA50" stroke-width="2"/>
<path d="M201.819 558.096C201.819 562.437 205.344 565.976 209.688 565.976C214.043 565.976 217.557 562.436 217.557 558.096C217.557 553.759 214.043 550.219 209.688 550.219C205.344 550.219 201.819 553.758 201.819 558.096Z" fill="white" fill-opacity="0.8" stroke="#B1DA50" stroke-width="2"/>
<path d="M218.75 527.995C214.211 527.995 210.531 531.677 210.531 536.223C210.531 540.752 214.213 544.432 218.75 544.432C223.296 544.432 226.979 540.753 226.979 536.223C226.979 531.676 223.298 527.995 218.75 527.995Z" fill="white" fill-opacity="0.8" stroke="#B1DA50" stroke-width="2"/>
<path d="M251.972 494.794C247.427 494.794 243.742 498.473 243.742 503.003C243.742 507.551 247.425 511.232 251.972 511.232C256.511 511.232 260.191 507.55 260.191 503.003C260.191 498.475 256.509 494.794 251.972 494.794Z" fill="white" fill-opacity="0.8" stroke="#B1DA50" stroke-width="2"/>
<path d="M320.814 485.896C316.391 485.896 312.77 489.493 312.77 493.94C312.77 498.387 316.391 501.984 320.814 501.984C325.277 501.984 328.877 498.387 328.877 493.94C328.877 489.494 325.277 485.896 320.814 485.896Z" fill="white" fill-opacity="0.8" stroke="#B1DA50" stroke-width="2"/>
<path d="M353.201 517.42C353.201 522.009 356.924 525.732 361.513 525.732C366.102 525.732 369.823 522.009 369.823 517.42C369.823 512.831 366.102 509.108 361.513 509.108C356.924 509.108 353.201 512.831 353.201 517.42Z" fill="white" fill-opacity="0.8" stroke="#B1DA50" stroke-width="2"/>
<path d="M375.931 527.872C371.321 527.872 367.577 531.616 367.577 536.224C367.577 540.838 371.325 544.557 375.931 544.557C380.536 544.557 384.283 540.837 384.283 536.224C384.283 531.616 380.539 527.872 375.931 527.872Z" fill="white" fill-opacity="0.8" stroke="#B1DA50" stroke-width="2"/>
<path d="M384.992 566.943C389.871 566.943 393.816 562.97 393.816 558.096C393.816 553.22 389.868 549.271 384.992 549.271C380.114 549.271 376.165 553.22 376.165 558.096C376.165 562.97 380.11 566.943 384.992 566.943Z" fill="white" fill-opacity="0.8" stroke="#B1DA50" stroke-width="2"/>
<path d="M416.558 605.182C416.558 600.612 412.856 596.91 408.286 596.91C403.718 596.91 400.016 600.612 400.016 605.182C400.016 609.731 403.72 613.431 408.286 613.431C412.854 613.431 416.558 609.731 416.558 605.182Z" fill="white" fill-opacity="0.8" stroke="#B1DA50" stroke-width="2"/>
<path d="M409.101 627.713C409.101 623.227 405.461 619.587 400.975 619.587C396.47 619.587 392.827 623.225 392.827 627.713C392.827 632.22 396.468 635.861 400.975 635.861C405.463 635.861 409.101 632.218 409.101 627.713Z" fill="white" fill-opacity="0.8" stroke="#B1DA50" stroke-width="2"/>
<path d="M389.112 656.786C393.824 656.786 397.629 652.981 397.629 648.267C397.629 643.56 393.827 639.729 389.112 639.729C384.399 639.729 380.573 643.556 380.573 648.267C380.573 652.984 384.403 656.786 389.112 656.786Z" fill="white" fill-opacity="0.8" stroke="#B1DA50" stroke-width="2"/>
<path d="M381.771 665.877C381.771 661.161 377.942 657.36 373.252 657.36C368.542 657.36 364.714 661.16 364.714 665.877C364.714 670.59 368.539 674.415 373.252 674.415C377.946 674.415 381.771 670.589 381.771 665.877Z" fill="white" fill-opacity="0.8" stroke="#B1DA50" stroke-width="2"/>
<path d="M354.058 688.361C358.769 688.361 362.595 684.534 362.595 679.821C362.595 675.109 358.769 671.283 354.058 671.283C349.344 671.283 345.518 675.109 345.518 679.821C345.518 684.534 349.344 688.361 354.058 688.361Z" fill="white" fill-opacity="0.8" stroke="#B1DA50" stroke-width="2"/>
<path d="M340.516 689.46C340.516 684.974 336.898 681.334 332.389 681.334C327.904 681.334 324.263 684.972 324.263 689.46C324.263 693.942 327.9 697.606 332.389 697.606C336.901 697.606 340.516 693.94 340.516 689.46Z" fill="white" fill-opacity="0.8" stroke="#B1DA50" stroke-width="2"/>
<path d="M309.197 702.654C313.765 702.654 317.467 698.952 317.467 694.384C317.467 689.833 313.763 686.133 309.197 686.133C304.63 686.133 300.927 689.833 300.927 694.384C300.927 698.952 304.629 702.654 309.197 702.654Z" fill="white" fill-opacity="0.8" stroke="#B1DA50" stroke-width="2"/>
<path d="M285.481 702.654C290.049 702.654 293.751 698.952 293.751 694.384C293.751 689.833 290.047 686.133 285.481 686.133C280.922 686.133 277.222 689.834 277.222 694.384C277.222 698.951 280.92 702.654 285.481 702.654Z" fill="white" fill-opacity="0.8" stroke="#B1DA50" stroke-width="2"/>
<path d="M262.29 697.503C266.733 697.503 270.334 693.904 270.334 689.461C270.334 685.015 266.733 681.416 262.29 681.416C257.844 681.416 254.246 685.015 254.246 689.461C254.246 693.904 257.844 697.503 262.29 697.503Z" fill="white" fill-opacity="0.8" stroke="#B1DA50" stroke-width="2"/>
<path d="M240.623 688.175C245.244 688.175 248.977 684.43 248.977 679.82C248.977 675.211 245.244 671.468 240.623 671.468C236.014 671.468 232.27 675.21 232.27 679.82C232.27 684.43 236.013 688.175 240.623 688.175Z" fill="white" fill-opacity="0.8" stroke="#B1DA50" stroke-width="2"/>
<path d="M221.437 673.714C225.761 673.714 229.265 670.196 229.265 665.877C229.265 661.553 225.757 658.06 221.437 658.06C217.116 658.06 213.62 661.555 213.62 665.877C213.62 670.194 217.112 673.714 221.437 673.714Z" fill="white" fill-opacity="0.8" stroke="#B1DA50" stroke-width="2"/>
<path d="M213.179 648.266C213.179 644.071 209.778 640.656 205.578 640.656C201.381 640.656 197.967 644.069 197.967 648.266C197.967 652.469 201.385 655.857 205.578 655.857C209.774 655.857 213.179 652.467 213.179 648.266Z" fill="white" fill-opacity="0.8" stroke="#B1DA50" stroke-width="2"/>
<path d="M193.714 635.634C198.086 635.634 201.634 632.097 201.634 627.712C201.634 623.347 198.084 619.813 193.714 619.813C189.353 619.813 185.804 623.348 185.804 627.712C185.804 632.096 189.351 635.634 193.714 635.634Z" fill="white" fill-opacity="0.8" stroke="#B1DA50" stroke-width="2"/>
<path d="M193.643 605.181C193.643 601.169 190.396 597.919 186.393 597.919C182.378 597.919 179.142 601.17 179.142 605.181C179.142 609.173 182.38 612.422 186.393 612.422C190.394 612.422 193.643 609.174 193.643 605.181Z" fill="white" fill-opacity="0.8" stroke="#B1DA50" stroke-width="2"/>
<path d="M179.265 558.015C179.265 561.951 182.457 565.112 186.392 565.112C190.318 565.112 193.509 561.95 193.509 558.015C193.509 554.09 190.326 550.878 186.392 550.878C182.448 550.878 179.265 554.089 179.265 558.015Z" fill="white" fill-opacity="0.8" stroke="#B1DA50" stroke-width="2"/>
<path d="M193.715 542.972C197.872 542.972 201.234 539.62 201.234 535.442C201.234 531.306 197.872 527.933 193.715 527.933C189.568 527.933 186.207 531.307 186.207 535.442C186.207 539.619 189.568 542.972 193.715 542.972Z" fill="white" fill-opacity="0.8" stroke="#B1DA50" stroke-width="2"/>
<path d="M198.503 514.928C198.503 518.837 201.669 522.004 205.578 522.004C209.488 522.004 212.654 518.838 212.654 514.928C212.654 511.019 209.488 507.852 205.578 507.852C201.669 507.852 198.503 511.019 198.503 514.928Z" fill="white" fill-opacity="0.8" stroke="#B1DA50" stroke-width="2"/>
<path d="M221.438 490.222C217.528 490.222 214.362 493.388 214.362 497.297C214.362 501.207 217.528 504.373 221.438 504.373C225.347 504.373 228.513 501.207 228.513 497.297C228.513 493.388 225.347 490.222 221.438 490.222Z" fill="white" fill-opacity="0.8" stroke="#B1DA50" stroke-width="2"/>
<path d="M233.103 483.354C233.103 487.51 236.475 490.883 240.622 490.883C244.78 490.883 248.14 487.509 248.14 483.354C248.14 479.218 244.778 475.846 240.622 475.846C236.477 475.846 233.103 479.217 233.103 483.354Z" fill="white" fill-opacity="0.8" stroke="#B1DA50" stroke-width="2"/>
<path d="M262.289 480.832C266.218 480.832 269.405 477.645 269.405 473.715C269.405 469.785 266.218 466.598 262.289 466.598C258.36 466.598 255.162 469.783 255.162 473.715C255.162 477.647 258.36 480.832 262.289 480.832Z" fill="white" fill-opacity="0.8" stroke="#B1DA50" stroke-width="2"/>
<path d="M332.39 466.557C328.44 466.557 325.232 469.764 325.232 473.715C325.232 477.666 328.44 480.873 332.39 480.873C336.359 480.873 339.57 477.668 339.57 473.715C339.57 469.762 336.359 466.557 332.39 466.557Z" fill="white" fill-opacity="0.8" stroke="#B1DA50" stroke-width="2"/>
<path d="M354.057 490.965C358.258 490.965 361.648 487.548 361.648 483.354C361.648 479.156 358.254 475.763 354.057 475.763C349.862 475.763 346.445 479.152 346.445 483.354C346.445 487.552 349.858 490.965 354.057 490.965Z" fill="white" fill-opacity="0.8" stroke="#B1DA50" stroke-width="2"/>
<path d="M373.252 489.686C369.033 489.686 365.64 493.102 365.64 497.298C365.64 501.494 369.033 504.909 373.252 504.909C377.432 504.909 380.843 501.494 380.843 497.298C380.843 493.102 377.432 489.686 373.252 489.686Z" fill="white" fill-opacity="0.8" stroke="#B1DA50" stroke-width="2"/>
<path d="M389.113 507.09C384.792 507.09 381.273 510.606 381.273 514.928C381.273 519.254 384.796 522.745 389.113 522.745C393.434 522.745 396.93 519.249 396.93 514.928C396.93 510.611 393.438 507.09 389.113 507.09Z" fill="white" fill-opacity="0.8" stroke="#B1DA50" stroke-width="2"/>
<path d="M400.975 527.769C396.721 527.769 393.26 531.197 393.26 535.442C393.26 539.702 396.715 543.157 400.975 543.157C405.22 543.157 408.648 539.696 408.648 535.442C408.648 531.203 405.214 527.769 400.975 527.769Z" fill="white" fill-opacity="0.8" stroke="#B1DA50" stroke-width="2"/>
<path d="M400.243 558.014C400.243 562.436 403.839 566.058 408.285 566.058C412.732 566.058 416.329 562.436 416.329 558.014C416.329 553.547 412.728 549.971 408.285 549.971C403.843 549.971 400.243 553.547 400.243 558.014Z" fill="white" fill-opacity="0.8" stroke="#B1DA50" stroke-width="2"/>
<path d="M408.999 669.071C408.999 664.992 405.683 661.706 401.612 661.706C397.542 661.706 394.228 664.993 394.228 669.071C394.228 673.166 397.54 676.455 401.612 676.455C405.684 676.455 408.999 673.167 408.999 669.071Z" fill="white" fill-opacity="0.8" stroke="#B1DA50" stroke-width="2"/>
<path d="M384.826 693.241C388.923 693.241 392.212 689.93 392.212 685.857C392.212 681.785 388.924 678.471 384.826 678.471C380.751 678.471 377.442 681.783 377.442 685.857C377.442 689.932 380.751 693.241 384.826 693.241Z" fill="white" fill-opacity="0.8" stroke="#B1DA50" stroke-width="2"/>
<path d="M209.841 692.541C213.536 692.541 216.526 689.538 216.526 685.857C216.526 682.175 213.536 679.171 209.841 679.171C206.156 679.171 203.167 682.176 203.167 685.857C203.167 689.537 206.156 692.541 209.841 692.541Z" fill="white" fill-opacity="0.8" stroke="#B1DA50" stroke-width="2"/>
<path d="M193.077 676.291C197.05 676.291 200.276 673.059 200.276 669.071C200.276 665.1 197.048 661.871 193.077 661.871C189.087 661.871 185.857 665.098 185.857 669.071C185.857 673.061 189.085 676.291 193.077 676.291Z" fill="white" fill-opacity="0.8" stroke="#B1DA50" stroke-width="2"/>
<path d="M193.077 500.646C196.686 500.646 199.617 497.728 199.617 494.105C199.617 490.488 196.691 487.544 193.077 487.544C189.453 487.544 186.526 490.487 186.526 494.105C186.526 497.729 189.458 500.646 193.077 500.646Z" fill="white" fill-opacity="0.8" stroke="#B1DA50" stroke-width="2"/>
<path d="M209.842 470.779C206.232 470.779 203.301 473.697 203.301 477.32C203.301 480.937 206.227 483.88 209.842 483.88C213.465 483.88 216.392 480.938 216.392 477.32C216.392 473.696 213.46 470.779 209.842 470.779Z" fill="white" fill-opacity="0.8" stroke="#B1DA50" stroke-width="2"/>
<path d="M384.827 470.12C380.856 470.12 377.628 473.348 377.628 477.319C377.628 481.309 380.853 484.539 384.827 484.539C388.819 484.539 392.048 481.311 392.048 477.319C392.048 473.346 388.816 470.12 384.827 470.12Z" fill="white" fill-opacity="0.8" stroke="#B1DA50" stroke-width="2"/>
<path d="M401.612 487.421C397.909 487.421 394.928 490.402 394.928 494.105C394.928 497.786 397.907 500.79 401.612 500.79C405.296 500.79 408.298 497.788 408.298 494.105C408.298 490.399 405.294 487.421 401.612 487.421Z" fill="white" fill-opacity="0.8" stroke="#B1DA50" stroke-width="2"/>
</g>
<circle cx="187.789" cy="89" r="12" fill="#B1DA50"/>
<circle cx="187.789" cy="89" r="13.5" fill="#B1DA50" stroke="white" stroke-width="3"/>
<path d="M248.289 84.5C255.963 84.5 262.289 78.513 262.289 71C262.289 63.487 255.963 57.5 248.289 57.5C240.615 57.5 234.289 63.487 234.289 71C234.289 78.513 240.615 84.5 248.289 84.5Z" fill="#B1DA50" stroke="white" stroke-width="3"/>
<path d="M348.289 84.5C355.963 84.5 362.289 78.513 362.289 71C362.289 63.487 355.963 57.5 348.289 57.5C340.615 57.5 334.289 63.487 334.289 71C334.289 78.513 340.615 84.5 348.289 84.5Z" fill="#B1DA50" stroke="white" stroke-width="3"/>
<circle cx="408.789" cy="92" r="13.5" fill="#B1DA50" stroke="white" stroke-width="3"/>
<circle cx="477" cy="487" r="39.5" fill="#B1DA50" stroke="white" stroke-width="9"/>
<path d="M487 473.693C484.83 471.478 481.01 469.941 477.5 469.843M477.5 469.843C473.324 469.728 469.585 471.658 469.585 476.922C469.585 486.615 487 481.768 487 491.461C487 496.991 482.364 499.366 477.5 499.187M477.5 469.843V464M468 494.693C470.042 497.469 473.836 499.051 477.5 499.187M477.5 499.187V506" stroke="white" stroke-width="3" stroke-linecap="round" stroke-linejoin="round"/>
<rect width="164" height="53" transform="translate(0 337)" fill="white"/>
<path d="M19.81 373.33C13.93 373.33 11.23 370.57 10.96 366.28H15.61C15.82 368.2 16.63 369.79 19.81 369.79C21.94 369.79 23.35 368.62 23.35 366.94C23.35 365.23 22.45 364.63 19.3 364.15C13.81 363.43 11.56 361.78 11.56 357.64C11.56 353.98 14.62 351.25 19.36 351.25C24.19 351.25 27.01 353.41 27.4 357.67H22.93C22.63 355.72 21.49 354.82 19.36 354.82C17.23 354.82 16.15 355.81 16.15 357.25C16.15 358.78 16.84 359.5 20.14 359.98C25.33 360.64 28 362.05 28 366.49C28 370.3 24.88 373.33 19.81 373.33ZM40.023 373.33C34.383 373.33 31.173 370.33 31.173 364.63V351.55H36.063V364.33C36.063 367.9 37.113 369.46 40.053 369.46C42.933 369.46 44.193 368.08 44.193 364.15V351.55H49.083V364.45C49.083 370.3 45.813 373.33 40.023 373.33ZM53.5307 373V351.55H60.9407C66.1607 351.55 69.1307 353.86 69.1307 358.39V358.51C69.1307 363.04 65.9807 365.2 61.0907 365.2H58.3607V373H53.5307ZM58.3607 361.81H60.8207C63.1907 361.81 64.4507 360.67 64.4507 358.54V358.42C64.4507 356.14 63.1307 355.24 60.8207 355.24H58.3607V361.81ZM72.31 373V351.55H79.72C84.94 351.55 87.91 353.86 87.91 358.39V358.51C87.91 363.04 84.76 365.2 79.87 365.2H77.14V373H72.31ZM77.14 361.81H79.6C81.97 361.81 83.23 360.67 83.23 358.54V358.42C83.23 356.14 81.91 355.24 79.6 355.24H77.14V361.81ZM91.0893 373V351.55H95.9493V369.19H104.679V373H91.0893ZM107.996 373V351.55H112.886V373H107.996ZM117.632 373V351.55H131.612V355.33H122.462V360.34H129.782V363.88H122.462V369.22H132.092V373H117.632ZM135.474 373V351.55H143.154C148.224 351.55 151.434 353.62 151.434 358.06V358.18C151.434 361.42 149.544 363.13 147.024 363.88L152.694 373H147.534L142.404 364.72H140.304V373H135.474ZM140.304 361.42H143.034C145.464 361.42 146.694 360.4 146.694 358.33V358.21C146.694 356.02 145.374 355.27 143.034 355.27H140.304V361.42Z" fill="#60A511"/>
<rect width="120" height="53" transform="translate(463 337)" fill="white"/>
<path d="M475.31 373V351.55H483.74C488.42 351.55 490.85 353.47 490.85 357.13V357.25C490.85 359.5 489.77 361.15 487.37 361.84C490.16 362.41 491.66 364 491.66 366.88V367C491.66 370.93 489.08 373 484.13 373H475.31ZM480.05 369.64H483.38C485.78 369.64 486.86 368.56 486.86 366.61V366.49C486.86 364.51 485.78 363.49 483.14 363.49H480.05V369.64ZM480.05 360.37H482.96C485.3 360.37 486.23 359.53 486.23 357.61V357.49C486.23 355.69 485.21 354.88 482.93 354.88H480.05V360.37ZM503.755 373.33C498.115 373.33 494.905 370.33 494.905 364.63V351.55H499.795V364.33C499.795 367.9 500.845 369.46 503.785 369.46C506.665 369.46 507.925 368.08 507.925 364.15V351.55H512.815V364.45C512.815 370.3 509.545 373.33 503.755 373.33ZM522.423 373V363.76L515.343 351.55H520.683L525.033 359.77L529.293 351.55H534.003L527.313 363.76V373H522.423ZM536.716 373V351.55H550.696V355.33H541.546V360.34H548.866V363.88H541.546V369.22H551.176V373H536.716ZM554.558 373V351.55H562.238C567.308 351.55 570.518 353.62 570.518 358.06V358.18C570.518 361.42 568.628 363.13 566.108 363.88L571.778 373H566.618L561.488 364.72H559.388V373H554.558ZM559.388 361.42H562.118C564.548 361.42 565.778 360.4 565.778 358.33V358.21C565.778 356.02 564.458 355.27 562.118 355.27H559.388V361.42Z" fill="#60A511"/>
<rect width="191" height="53" transform="translate(202 703)" fill="white"/>
<path d="M214.43 739V717.55H219.32V739H214.43ZM224.066 739V717.55H229.706L237.866 731.68V717.55H242.186V739H237.326L228.386 723.73V739H224.066ZM252.23 739L245.06 717.55H250.19L255.29 734.02L260.39 717.55H264.95L257.81 739H252.23ZM267.835 739V717.55H281.815V721.33H272.665V726.34H279.985V729.88H272.665V735.22H282.295V739H267.835ZM293.177 739.33C287.297 739.33 284.597 736.57 284.327 732.28H288.977C289.187 734.2 289.997 735.79 293.177 735.79C295.307 735.79 296.717 734.62 296.717 732.94C296.717 731.23 295.817 730.63 292.667 730.15C287.177 729.43 284.927 727.78 284.927 723.64C284.927 719.98 287.987 717.25 292.727 717.25C297.557 717.25 300.377 719.41 300.767 723.67H296.297C295.997 721.72 294.857 720.82 292.727 720.82C290.597 720.82 289.517 721.81 289.517 723.25C289.517 724.78 290.207 725.5 293.507 725.98C298.697 726.64 301.367 728.05 301.367 732.49C301.367 736.3 298.247 739.33 293.177 739.33ZM308.481 739V721.33H302.691V717.55H319.161V721.33H313.371V739H308.481ZM331.263 735.46C334.893 735.46 337.173 732.67 337.173 728.35V728.11C337.173 723.94 334.953 721.09 331.203 721.09C327.483 721.09 325.233 723.82 325.233 728.14V728.38C325.233 732.76 327.753 735.46 331.263 735.46ZM331.173 739.33C324.453 739.33 320.163 734.68 320.163 728.41V728.17C320.163 721.78 324.843 717.25 331.203 717.25C337.653 717.25 342.243 721.6 342.243 728.05V728.29C342.243 734.68 337.863 739.33 331.173 739.33ZM345.765 739V717.55H353.445C358.515 717.55 361.725 719.62 361.725 724.06V724.18C361.725 727.42 359.835 729.13 357.315 729.88L362.985 739H357.825L352.695 730.72H350.595V739H345.765ZM350.595 727.42H353.325C355.755 727.42 356.985 726.4 356.985 724.33V724.21C356.985 722.02 355.665 721.27 353.325 721.27H350.595V727.42ZM373.128 739.33C367.248 739.33 364.548 736.57 364.278 732.28H368.928C369.138 734.2 369.948 735.79 373.128 735.79C375.258 735.79 376.668 734.62 376.668 732.94C376.668 731.23 375.768 730.63 372.618 730.15C367.128 729.43 364.878 727.78 364.878 723.64C364.878 719.98 367.938 717.25 372.678 717.25C377.508 717.25 380.328 719.41 380.718 723.67H376.248C375.948 721.72 374.808 720.82 372.678 720.82C370.548 720.82 369.468 721.81 369.468 723.25C369.468 724.78 370.158 725.5 373.458 725.98C378.648 726.64 381.318 728.05 381.318 732.49C381.318 736.3 378.198 739.33 373.128 739.33Z" fill="#60A511"/>
<path d="M250.12 26.33C243.1 26.33 239.2 21.77 239.2 15.41V15.17C239.2 8.72 243.79 4.22 250.12 4.22C254.89 4.22 259.15 6.41 259.66 11.72H254.83C254.41 9.2 252.76 8.06 250.18 8.06C246.46 8.06 244.27 10.85 244.27 15.23V15.47C244.27 19.61 246.04 22.58 250.24 22.58C253.84 22.58 255.31 20.51 255.4 18.05H250.57V14.51H260.2V16.79C260.2 22.52 256.54 26.33 250.12 26.33ZM273.708 22.46C277.338 22.46 279.618 19.67 279.618 15.35V15.11C279.618 10.94 277.398 8.09 273.648 8.09C269.928 8.09 267.678 10.82 267.678 15.14V15.38C267.678 19.76 270.198 22.46 273.708 22.46ZM273.618 26.33C266.898 26.33 262.608 21.68 262.608 15.41V15.17C262.608 8.78 267.288 4.25 273.648 4.25C280.098 4.25 284.688 8.6 284.688 15.05V15.29C284.688 21.68 280.308 26.33 273.618 26.33ZM298.2 22.46C301.83 22.46 304.11 19.67 304.11 15.35V15.11C304.11 10.94 301.89 8.09 298.14 8.09C294.42 8.09 292.17 10.82 292.17 15.14V15.38C292.17 19.76 294.69 22.46 298.2 22.46ZM298.11 26.33C291.39 26.33 287.1 21.68 287.1 15.41V15.17C287.1 8.78 291.78 4.25 298.14 4.25C304.59 4.25 309.18 8.6 309.18 15.05V15.29C309.18 21.68 304.8 26.33 298.11 26.33ZM317.563 22.22H319.543C323.863 22.22 325.903 19.79 325.903 15.35V15.11C325.903 10.7 324.013 8.33 319.483 8.33H317.563V22.22ZM312.703 26V4.55H319.723C327.253 4.55 330.973 8.63 330.973 15.05V15.29C330.973 21.71 327.223 26 319.693 26H312.703ZM341.677 26.33C335.797 26.33 333.097 23.57 332.827 19.28H337.477C337.687 21.2 338.497 22.79 341.677 22.79C343.807 22.79 345.217 21.62 345.217 19.94C345.217 18.23 344.317 17.63 341.167 17.15C335.677 16.43 333.427 14.78 333.427 10.64C333.427 6.98 336.487 4.25 341.227 4.25C346.057 4.25 348.877 6.41 349.267 10.67H344.797C344.497 8.72 343.357 7.82 341.227 7.82C339.097 7.82 338.017 8.81 338.017 10.25C338.017 11.78 338.707 12.5 342.007 12.98C347.197 13.64 349.867 15.05 349.867 19.49C349.867 23.3 346.747 26.33 341.677 26.33Z" fill="#60A511"/>
<defs>
<linearGradient id="paint0_linear_304_452" x1="59.7668" y1="337.408" x2="516.149" y2="391.074" gradientUnits="userSpaceOnUse">
<stop stop-color="#B1DA50"/>
<stop offset="1" stop-color="#8BA943"/>
</linearGradient>
</defs>
</svg>
